<svg xmlns="http://www.w3.org/2000/svg" viewBox="0 0 120 120">
  <defs>
    <linearGradient id="bg" x1="0%" y1="0%" x2="100%" y2="100%">
      <stop offset="0%" stop-color="#3b82f6"/>
      <stop offset="100%" stop-color="#2563eb"/>
    </linearGradient>
  </defs>
  <rect width="120" height="120" rx="27" fill="url(#bg)"/>
  <!-- Refrigerator body -->
  <rect x="34" y="20" width="52" height="80" rx="6" fill="#ffffff" opacity="0.95"/>
  <!-- Fridge divider line -->
  <line x1="34" y1="55" x2="86" y2="55" stroke="#3b82f6" stroke-width="2" opacity="0.4"/>
  <!-- Handle top -->
  <rect x="76" y="32" width="3" height="16" rx="1.5" fill="#3b82f6" opacity="0.5"/>
  <!-- Handle bottom -->
  <rect x="76" y="62" width="3" height="16" rx="1.5" fill="#3b82f6" opacity="0.5"/>
  <!-- Magnet/pin 1 -->
  <circle cx="50" cy="36" r="5" fill="#ef4444"/>
  <!-- Magnet/pin 2 -->
  <circle cx="64" cy="42" r="4" fill="#fbbf24"/>
  <!-- Link icon on fridge -->
  <path d="M48 70 L56 70 A4 4 0 0 1 56 78 L48 78 A4 4 0 0 1 48 70Z" fill="none" stroke="#3b82f6" stroke-width="2.5"/>
  <path d="M56 74 L60 74" stroke="#3b82f6" stroke-width="2.5" stroke-linecap="round"/>
  <path d="M60 70 L68 70 A4 4 0 0 1 68 78 L60 78 A4 4 0 0 1 60 70Z" fill="none" stroke="#3b82f6" stroke-width="2.5"/>
</svg>
