<svg xmlns="http://www.w3.org/2000/svg" viewBox="0 0 120 120">
  <defs>
    <linearGradient id="bg" x1="0%" y1="0%" x2="100%" y2="100%">
      <stop offset="0%" stop-color="#14b8a6"/>
      <stop offset="100%" stop-color="#0d9488"/>
    </linearGradient>
  </defs>
  <rect width="120" height="120" rx="27" fill="url(#bg)"/>
  <!-- Rolodex card stack -->
  <rect x="24" y="42" width="72" height="48" rx="6" fill="#ffffff" opacity="0.15" transform="rotate(-3, 60, 66)"/>
  <rect x="24" y="42" width="72" height="48" rx="6" fill="#ffffff" opacity="0.3" transform="rotate(-1, 60, 66)"/>
  <rect x="24" y="42" width="72" height="48" rx="6" fill="#ffffff" opacity="0.9"/>
  <!-- Contact avatar -->
  <circle cx="44" cy="60" r="8" fill="#14b8a6" opacity="0.3"/>
  <circle cx="44" cy="57" r="4" fill="#0d9488" opacity="0.5"/>
  <path d="M36 67 A8 8 0 0 1 52 67" fill="#0d9488" opacity="0.4"/>
  <!-- Contact lines -->
  <rect x="58" y="54" width="30" height="3" rx="1.5" fill="#0d9488" opacity="0.5"/>
  <rect x="58" y="61" width="22" height="3" rx="1.5" fill="#0d9488" opacity="0.3"/>
  <rect x="58" y="68" width="26" height="3" rx="1.5" fill="#0d9488" opacity="0.3"/>
  <!-- QR code hint -->
  <g transform="translate(40, 22)">
    <rect x="0" y="0" width="5" height="5" fill="#ffffff" opacity="0.7"/>
    <rect x="6" y="0" width="5" height="5" fill="#ffffff" opacity="0.4"/>
    <rect x="12" y="0" width="5" height="5" fill="#ffffff" opacity="0.7"/>
    <rect x="0" y="6" width="5" height="5" fill="#ffffff" opacity="0.4"/>
    <rect x="12" y="6" width="5" height="5" fill="#ffffff" opacity="0.4"/>
    <rect x="0" y="12" width="5" height="5" fill="#ffffff" opacity="0.7"/>
    <rect x="6" y="12" width="5" height="5" fill="#ffffff" opacity="0.4"/>
    <rect x="12" y="12" width="5" height="5" fill="#ffffff" opacity="0.7"/>
  </g>
</svg>
